<?xml version="1.0" encoding="UTF-8" standalone="no"?>
<!-- Created with Inkscape (http://www.inkscape.org/) -->

<svg
   width="1000"
   height="450"
   viewBox="0 0 264.58333 119.0625"
   version="1.1"
   id="svg5"
   inkscape:version="1.1 (c4e8f9ed74, 2021-05-24)"
   sodipodi:docname="logo.svg"
   inkscape:export-filename="/home/max/projects/logo/logo.png"
   inkscape:export-xdpi="408.56506"
   inkscape:export-ydpi="408.56506"
   xmlns:inkscape="http://www.inkscape.org/namespaces/inkscape"
   xmlns:sodipodi="http://sodipodi.sourceforge.net/DTD/sodipodi-0.dtd"
   xmlns="http://www.w3.org/2000/svg"
   xmlns:svg="http://www.w3.org/2000/svg">
  <sodipodi:namedview
     id="namedview7"
     pagecolor="#505050"
     bordercolor="#eeeeee"
     borderopacity="1"
     inkscape:pageshadow="0"
     inkscape:pageopacity="0"
     inkscape:pagecheckerboard="0"
     inkscape:document-units="mm"
     showgrid="true"
     inkscape:zoom="0.997"
     inkscape:cx="499.4985"
     inkscape:cy="225.17553"
     inkscape:window-width="1916"
     inkscape:window-height="1040"
     inkscape:window-x="0"
     inkscape:window-y="36"
     inkscape:window-maximized="1"
     inkscape:current-layer="layer1"
     units="px"
     showborder="true"
     inkscape:snap-others="true"
     inkscape:snap-global="true"
     inkscape:snap-nodes="true"
     inkscape:snap-intersection-paths="true"
     inkscape:snap-bbox="true"
     inkscape:bbox-paths="false"
     showguides="true"
     inkscape:guide-bbox="true"
     inkscape:lockguides="true"
     inkscape:snap-bbox-midpoints="true"
     inkscape:snap-bbox-edge-midpoints="true"
     inkscape:bbox-nodes="false"
     inkscape:snap-smooth-nodes="false"
     inkscape:snap-grids="false"
     inkscape:object-paths="true"
     width="500mm"
     height="300px"
     inkscape:snap-midpoints="true">
    <sodipodi:guide
       position="232.14444,-273.2078"
       orientation="0,-1"
       id="guide25429"
       inkscape:locked="true" />
  </sodipodi:namedview>
  <defs
     id="defs2">
    <marker
       id="Arrow"
       refX="2.52"
       refY="2.25"
       markerUnits="strokeWidth"
       markerWidth="6"
       markerHeight="4.5"
       orient="auto">
      <path
         d="M 2.52,2.25 0,4.5 6,2.25 0,0 Z"
         id="path11664" />
    </marker>
    <path
       id="s"
       d="M 33,0 M 208,194 C 230,190 312,174 312,102 312,51 277,11 199,11 115,11 79,68 60,153 57,166 56,170 46,170 33,170 33,163 33,145 V 13 c 0,-17 0,-24 11,-24 5,0 6,1 25,20 2,2 2,4 20,23 44,-42 89,-43 110,-43 115,0 161,67 161,139 0,53 -30,83 -42,95 -33,32 -72,40 -114,48 -56,11 -123,24 -123,82 0,35 26,76 112,76 110,0 115,-90 117,-121 1,-9 10,-9 12,-9 13,0 13,5 13,24 v 101 c 0,17 0,24 -11,24 -5,0 -7,0 -20,-12 -3,-4 -13,-13 -17,-16 -38,28 -79,28 -94,28 C 71,448 33,381 33,325 c 0,-35 16,-63 43,-85 32,-26 60,-32 132,-46 z" />
    <path
       id="i"
       d="M 33,0 M 177,442 37,431 v -31 c 65,0 74,-6 74,-55 V 76 C 111,31 100,31 33,31 V 0 c 32,1 86,3 110,3 35,0 70,-2 104,-3 v 31 c -66,0 -70,5 -70,44 z m 0,-367 m 4,541 c 0,32 -25,53 -53,53 -31,0 -53,-27 -53,-53 0,-27 22,-53 53,-53 28,0 53,21 53,53 z" />
    <path
       id="n"
       d="m 32,0 m 78,344 V 76 C 110,31 99,31 32,31 V 0 c 35,1 86,3 113,3 26,0 78,-2 112,-3 v 31 c -67,0 -78,0 -78,45 v 184 c 0,104 71,160 135,160 63,0 74,-54 74,-111 V 76 C 388,31 377,31 310,31 V 0 c 35,1 86,3 113,3 26,0 78,-2 112,-3 v 31 c -52,0 -77,0 -78,30 v 191 c 0,86 0,117 -31,153 -14,17 -47,37 -105,37 -73,0 -120,-43 -148,-105 V 442 L 32,431 v -31 c 70,0 78,-7 78,-56 z" />
    <path
       id="parleft"
       d="m 99,0 m 232,-240 c 0,3 0,5 -17,22 -125,126 -157,315 -157,468 0,174 38,348 161,473 13,12 13,14 13,17 0,7 -4,10 -10,10 C 311,750 221,682 162,555 111,445 99,334 99,250 c 0,-78 11,-199 66,-312 60,-123 146,-188 156,-188 6,0 10,3 10,10 z" />
    <path
       id="parright"
       d="m 57,0 m 232,250 c 0,78 -11,199 -66,312 -60,123 -146,188 -156,188 -6,0 -10,-4 -10,-10 0,-3 0,-5 19,-23 98,-99 155,-258 155,-467 0,-171 -37,-347 -161,-473 -13,-12 -13,-14 -13,-17 0,-6 4,-10 10,-10 10,0 100,68 159,195 51,110 63,221 63,305 z" />
    <path
       id="x"
       d="m 29,0 m 305,302 c 6,26 29,118 99,118 5,0 29,0 50,-13 -28,-5 -48,-30 -48,-54 0,-16 11,-35 38,-35 22,0 54,18 54,58 0,52 -59,66 -93,66 -58,0 -93,-53 -105,-76 -25,66 -79,76 -108,76 C 117,442 60,313 60,288 c 0,-10 10,-10 12,-10 8,0 11,2 13,11 34,106 100,131 134,131 19,0 54,-9 54,-67 0,-31 -17,-98 -54,-238 C 203,53 168,11 124,11 c -6,0 -29,0 -50,13 25,5 47,26 47,54 0,27 -22,35 -37,35 -30,0 -55,-26 -55,-58 0,-46 50,-66 94,-66 66,0 102,70 105,76 12,-37 48,-76 108,-76 103,0 160,129 160,154 0,10 -9,10 -12,10 -9,0 -11,-4 -13,-11 C 438,35 370,11 338,11 c -39,0 -55,32 -55,66 0,22 6,44 17,88 z" />
    <path
       id="pi"
       d="M 27,0 M 265,373 H 378 C 345,225 336,182 336,115 c 0,-15 0,-42 8,-76 10,-44 21,-50 36,-50 20,0 41,18 41,38 0,6 0,8 -6,22 -29,72 -29,137 -29,165 0,53 7,107 18,159 h 114 c 13,0 49,0 49,34 0,24 -21,24 -40,24 H 192 c -22,0 -60,0 -104,-47 -35,-39 -61,-85 -61,-90 0,-1 0,-10 12,-10 8,0 10,4 16,12 49,77 107,77 127,77 h 57 C 207,252 153,131 111,40 c -8,-15 -8,-17 -8,-24 0,-19 16,-27 29,-27 30,0 38,28 50,65 14,46 14,48 27,98 z" />
    <path
       id="minus"
       d="m 83,0 m 578,230 c 14,0 33,0 33,20 0,20 -19,20 -33,20 H 193.8 c -14,0 -33,0 -33,-20 0,-20 19,-20 33,-20 z" />
    <path
       id="zero"
       d="m 39,0 m 421,320 c 0,80 -5,160 -40,234 C 374,650 292,666 250,666 190,666 117,640 76,547 44,478 39,400 39,320 39,245 43,155 84,79 127,-2 200,-22 249,-22 c 54,0 130,21 174,116 32,69 37,147 37,226 z m 0,0 M 249,0 c -39,0 -98,25 -116,121 -11,60 -11,152 -11,211 0,64 0,130 8,184 19,119 94,128 119,128 33,0 99,-18 118,-117 10,-56 10,-132 10,-195 0,-75 0,-143 -11,-207 C 351,30 294,0 249,0 Z" />
    <path
       id="one"
       d="m 89,0 m 205,640 c 0,24 0,26 -23,26 C 209,602 121,602 89,602 v -31 c 20,0 79,0 131,26 V 79 C 220,43 217,31 127,31 H 95 V 0 c 35,3 122,3 162,3 40,0 127,0 162,-3 v 31 h -32 c -90,0 -93,11 -93,48 z" />
    <path
       id="two"
       d="m 50,0 m 399,174 h -25 c -5,-30 -12,-74 -22,-89 -7,-8 -73,-8 -95,-8 H 127 L 233,180 C 389,318 449,372 449,472 449,586 359,666 237,666 124,666 50,574 50,485 c 0,-56 50,-56 53,-56 17,0 52,12 52,53 0,26 -18,52 -53,52 -8,0 -10,0 -13,-1 23,65 77,102 135,102 91,0 134,-81 134,-163 0,-80 -50,-159 -105,-221 L 61,37 C 50,26 50,24 50,0 h 371 z" />
    <path
       id="three"
       d="m 42,0 m 248,352 c 82,27 140,97 140,176 0,82 -88,138 -184,138 -101,0 -177,-60 -177,-136 0,-33 22,-52 51,-52 31,0 51,22 51,51 0,50 -47,50 -62,50 31,49 97,62 133,62 41,0 96,-22 96,-112 0,-12 -2,-70 -28,-114 -30,-48 -64,-51 -89,-52 -8,-1 -32,-3 -39,-3 -8,-1 -15,-2 -15,-12 0,-11 7,-11 24,-11 h 44 C 317,337 354,269 354,171 354,35 285,6 241,6 198,6 123,23 88,82 c 35,-5 66,17 66,55 0,36 -27,56 -56,56 -24,0 -56,-14 -56,-58 0,-91 93,-157 202,-157 122,0 213,91 213,193 0,82 -63,160 -167,181 z" />
    <path
       id="four"
       d="m 28,0 m 0,165 H 294 V 78 C 294,42 292,31 218,31 H 197 V 0 c 41,3 93,3 135,3 42,0 95,0 136,-3 v 31 h -21 c -74,0 -76,11 -76,47 v 87 h 100 v 31 H 371 v 455 c 0,20 0,26 -16,26 -9,0 -12,0 -20,-12 L 28,196 Z m 0,31 m 272,0 H 56 l 244,373 z" />
    <path
       id="five"
       d="m 50,0 m 399,201 c 0,119 -82,219 -190,219 -48,0 -91,-16 -127,-51 v 195 c 20,-6 53,-13 85,-13 123,0 193,91 193,104 0,6 -3,11 -10,11 -1,0 -3,0 -8,-3 -20,-9 -69,-29 -136,-29 -40,0 -86,7 -133,28 -8,3 -10,3 -12,3 -10,0 -10,-8 -10,-24 V 345 c 0,-18 0,-26 14,-26 7,0 9,3 13,9 11,16 48,70 129,70 52,0 77,-46 85,-64 16,-37 18,-76 18,-126 0,-35 0,-95 -24,-137 C 312,32 275,6 229,6 156,6 99,59 82,118 c 3,-1 6,-2 17,-2 33,0 50,25 50,49 0,24 -17,49 -50,49 -14,0 -49,-7 -49,-53 0,-86 69,-183 181,-183 116,0 218,96 218,223 z" />
    <path
       id="seven"
       d="m 56,0 m 420,609 c 9,12 9,14 9,35 H 242 c -122,0 -124,13 -128,32 H 89 L 56,470 h 25 c 3,16 12,79 25,91 7,6 85,6 98,6 H 411 C 400,551 321,442 299,409 209,274 176,135 176,33 c 0,-10 0,-55 46,-55 46,0 46,45 46,55 v 51 c 0,55 3,110 11,164 4,23 18,109 62,171 z" />
  </defs>
  <g
     inkscape:label="Layer 1"
     inkscape:groupmode="layer"
     id="layer1">
    <g
       id="g7573"
       transform="translate(-35.186272,10.201351)"
       style="font-variation-settings:normal;vector-effect:none;fill:none;fill-opacity:1;stroke:#000000;stroke-width:0.264583px;stroke-linecap:butt;stroke-linejoin:miter;stroke-miterlimit:4;stroke-dasharray:none;stroke-dashoffset:0;stroke-opacity:1;-inkscape-stroke:none;stop-color:#000000" />
    <g
       id="g31834"
       transform="rotate(120,373.71828,364.23949)"
       style="opacity:0.235251;fill:#000000;stroke:#ffffff;stroke-linecap:round;stroke-opacity:0.140889" />
    <g
       id="g4850"
       transform="matrix(10.124225,0,0,10.124225,-3721.3217,-3105.3841)" />
    <g
       id="g8000"
       transform="rotate(90,362.67816,321.26195)"
       style="opacity:1;fill:#ffffff;fill-opacity:1" />
    <g
       id="g3852"
       transform="matrix(1,0,0,-1,0,119.28963)">
      <rect
         style="font-variation-settings:normal;opacity:1;vector-effect:none;fill:none;fill-opacity:1;stroke:#eceff4;stroke-width:1.32292;stroke-linecap:butt;stroke-linejoin:miter;stroke-miterlimit:4;stroke-dasharray:none;stroke-dashoffset:0;stroke-opacity:1;-inkscape-stroke:none;stop-color:#000000;stop-opacity:1"
         id="rect10061-5"
         width="11.302951"
         height="33.909023"
         x="115.98264"
         y="-25.701784"
         transform="rotate(30)" />
      <path
         style="font-variation-settings:normal;fill:none;fill-opacity:1;stroke:#eceff4;stroke-width:1.32292;stroke-linecap:butt;stroke-linejoin:miter;stroke-miterlimit:4;stroke-dasharray:none;stroke-dashoffset:0;stroke-opacity:1;stop-color:#000000"
         d="m 141.29552,29.678025 3.56483,6.174434"
         id="path10069-6"
         sodipodi:nodetypes="cc" />
      <path
         style="font-variation-settings:normal;fill:none;fill-opacity:1;stroke:#eceff4;stroke-width:1.32292;stroke-linecap:butt;stroke-linejoin:miter;stroke-miterlimit:4;stroke-dasharray:none;stroke-dashoffset:0;stroke-opacity:1;stop-color:#000000"
         d="m 168.69122,77.171613 -3.56483,-6.174459"
         id="path10079-1"
         sodipodi:nodetypes="cc" />
      <g
         id="g2801"
         style="font-variation-settings:normal;opacity:1;vector-effect:none;fill:none;fill-opacity:1;stroke:#eceff4;stroke-width:1.32292;stroke-linecap:butt;stroke-linejoin:miter;stroke-miterlimit:4;stroke-dasharray:none;stroke-dashoffset:0;stroke-opacity:1;-inkscape-stroke:none;stop-color:#000000;stop-opacity:1"
         transform="translate(-0.30592488)">
        <path
           style="font-variation-settings:normal;opacity:1;vector-effect:none;fill:none;fill-opacity:1;stroke:#eceff4;stroke-width:1.32292;stroke-linecap:butt;stroke-linejoin:miter;stroke-miterlimit:4;stroke-dasharray:none;stroke-dashoffset:0;stroke-opacity:1;-inkscape-stroke:none;stop-color:#000000;stop-opacity:1"
           id="path10071-2"
           sodipodi:type="arc"
           sodipodi:cx="108.318"
           sodipodi:cy="107.10813"
           sodipodi:rx="5.1492162"
           sodipodi:ry="5.1492162"
           sodipodi:start="0"
           sodipodi:end="3.1379834"
           sodipodi:arc-type="arc"
           transform="matrix(0.5,0.8660254,0.8660254,-0.5,0,0)"
           sodipodi:open="true"
           d="m 113.46722,107.10813 a 5.1492162,5.1492162 0 0 1 -5.13993,5.14921 5.1492162,5.1492162 0 0 1 -5.15847,-5.13062" />
        <path
           style="font-variation-settings:normal;opacity:1;vector-effect:none;fill:none;fill-opacity:1;stroke:#eceff4;stroke-width:1.32292;stroke-linecap:butt;stroke-linejoin:miter;stroke-miterlimit:4;stroke-dasharray:none;stroke-dashoffset:0;stroke-opacity:1;-inkscape-stroke:none;stop-color:#000000;stop-opacity:1"
           id="path10073-9"
           sodipodi:type="arc"
           sodipodi:cx="118.61637"
           sodipodi:cy="107.10813"
           sodipodi:rx="5.1492162"
           sodipodi:ry="5.1492162"
           sodipodi:start="0"
           sodipodi:end="3.1415927"
           sodipodi:arc-type="arc"
           sodipodi:open="true"
           transform="matrix(0.5,0.8660254,0.8660254,-0.5,0,0)"
           d="m 123.76559,107.10813 a 5.1492162,5.1492162 0 0 1 -2.57461,4.45935 5.1492162,5.1492162 0 0 1 -5.14922,0 5.1492162,5.1492162 0 0 1 -2.57461,-4.45935" />
        <path
           style="font-variation-settings:normal;opacity:1;vector-effect:none;fill:none;fill-opacity:1;stroke:#eceff4;stroke-width:1.32292;stroke-linecap:butt;stroke-linejoin:miter;stroke-miterlimit:4;stroke-dasharray:none;stroke-dashoffset:0;stroke-opacity:1;-inkscape-stroke:none;stop-color:#000000;stop-opacity:1"
           id="path10081-2"
           sodipodi:type="arc"
           sodipodi:cx="-139.2126"
           sodipodi:cy="107.10809"
           sodipodi:rx="5.1492162"
           sodipodi:ry="5.1492162"
           sodipodi:start="0"
           sodipodi:end="3.1415927"
           sodipodi:arc-type="arc"
           sodipodi:open="true"
           transform="rotate(-120)"
           d="m -134.06338,107.10809 a 5.1492162,5.1492162 0 0 1 -2.57461,4.45936 5.1492162,5.1492162 0 0 1 -5.14922,0 5.1492162,5.1492162 0 0 1 -2.57461,-4.45936" />
        <path
           style="font-variation-settings:normal;opacity:1;vector-effect:none;fill:none;fill-opacity:1;stroke:#eceff4;stroke-width:1.32292;stroke-linecap:butt;stroke-linejoin:miter;stroke-miterlimit:4;stroke-dasharray:none;stroke-dashoffset:0;stroke-opacity:1;-inkscape-stroke:none;stop-color:#000000;stop-opacity:1"
           id="path10083-7"
           sodipodi:type="arc"
           sodipodi:cx="-128.91423"
           sodipodi:cy="107.10809"
           sodipodi:rx="5.1492162"
           sodipodi:ry="5.1492162"
           sodipodi:start="0"
           sodipodi:end="3.1415927"
           sodipodi:arc-type="arc"
           sodipodi:open="true"
           transform="rotate(-120)"
           d="m -123.76501,107.10809 a 5.1492162,5.1492162 0 0 1 -2.57461,4.45936 5.1492162,5.1492162 0 0 1 -5.14922,0 5.1492162,5.1492162 0 0 1 -2.57461,-4.45936" />
      </g>
      <path
         style="font-variation-settings:normal;fill:none;fill-opacity:1;stroke:#eceff4;stroke-width:1.32292;stroke-linecap:butt;stroke-linejoin:miter;stroke-miterlimit:4;stroke-dasharray:none;stroke-dashoffset:0;stroke-opacity:1;stop-color:#000000"
         d="M 128.33057,81.221606 V 104.98719"
         id="path10091-0"
         sodipodi:nodetypes="cc" />
      <path
         style="font-variation-settings:normal;fill:none;fill-opacity:1;stroke:#eceff4;stroke-width:1.32292;stroke-linecap:butt;stroke-linejoin:miter;stroke-miterlimit:4;stroke-dasharray:none;stroke-dashoffset:0;stroke-opacity:1;stop-color:#000000"
         d="M 136.25245,81.221606 V 104.98719"
         id="path10093-9"
         sodipodi:nodetypes="cc" />
      <path
         style="font-variation-settings:normal;fill:none;fill-opacity:1;stroke:#eceff4;stroke-width:1.32292;stroke-linecap:butt;stroke-linejoin:miter;stroke-miterlimit:4;stroke-dasharray:none;stroke-dashoffset:0;stroke-opacity:1;stop-color:#000000"
         d="M 160.01806,93.104409 H 136.25245"
         id="path10095-3"
         sodipodi:nodetypes="cc" />
      <path
         style="font-variation-settings:normal;fill:none;fill-opacity:1;stroke:#eceff4;stroke-width:1.32292;stroke-linecap:butt;stroke-linejoin:miter;stroke-miterlimit:4;stroke-dasharray:none;stroke-dashoffset:0;stroke-opacity:1;stop-color:#000000"
         d="M 128.33057,93.104409 H 104.56499"
         id="path10097-6"
         sodipodi:nodetypes="cc" />
      <path
         style="font-variation-settings:normal;fill:none;fill-opacity:1;stroke:#eceff4;stroke-width:1.32292;stroke-linecap:butt;stroke-linejoin:miter;stroke-miterlimit:4;stroke-dasharray:none;stroke-dashoffset:0;stroke-opacity:1;stop-color:#000000"
         d="M 118.18913,38.558661 132.3275,14.122196 144.65142,35.490585"
         id="path10101-0"
         sodipodi:nodetypes="ccc" />
      <path
         style="font-variation-settings:normal;fill:none;fill-opacity:1;stroke:#eceff4;stroke-width:1.32292;stroke-linecap:butt;stroke-linejoin:miter;stroke-miterlimit:4;stroke-dasharray:none;stroke-dashoffset:0;stroke-opacity:1;stop-color:#000000"
         d="m 165.18517,71.09897 12.70585,22.024274 -41.63857,-0.01883"
         id="path10103-6"
         sodipodi:nodetypes="ccc" />
      <path
         style="font-variation-settings:normal;fill:none;fill-opacity:1;stroke:#eceff4;stroke-width:1.32292;stroke-linecap:butt;stroke-linejoin:miter;stroke-miterlimit:4;stroke-dasharray:none;stroke-dashoffset:0;stroke-opacity:1;stop-color:#000000"
         d="m 128.33057,93.104409 -41.63825,-0.02199 c 4.337169,-7.50193 10.205127,-17.655761 14.5423,-25.157691"
         id="path10105-2"
         sodipodi:nodetypes="ccc" />
      <ellipse
         style="font-variation-settings:normal;fill:none;fill-opacity:1;stroke:#eceff4;stroke-width:1.32292;stroke-linecap:butt;stroke-linejoin:miter;stroke-miterlimit:4;stroke-dasharray:none;stroke-dashoffset:0;stroke-opacity:1;stop-color:#000000"
         id="ellipse10109-6"
         cx="53.424847"
         cy="-132.29169"
         rx="8.2939339"
         ry="8.2939568"
         transform="rotate(90)" />
      <g
         id="g2795"
         transform="translate(0.017895)">
        <path
           style="font-variation-settings:normal;fill:none;fill-opacity:1;stroke:#eceff4;stroke-width:1.32292;stroke-linecap:butt;stroke-linejoin:miter;stroke-miterlimit:4;stroke-dasharray:none;stroke-dashoffset:0;stroke-opacity:1;stop-color:#000000"
           d="m 119.69318,66.702006 h 25.19701"
           id="path10117-7" />
        <path
           style="font-variation-settings:normal;fill:none;fill-opacity:1;stroke:#eceff4;stroke-width:1.27902;stroke-linecap:butt;stroke-linejoin:miter;stroke-miterlimit:4;stroke-dasharray:none;stroke-dashoffset:0;stroke-opacity:1;stop-color:#000000"
           d="m 121.71108,70.672615 h 21.197"
           id="path10121-9" />
        <path
           style="font-variation-settings:normal;fill:none;fill-opacity:1;stroke:#eceff4;stroke-width:1.22797;stroke-linecap:butt;stroke-linejoin:miter;stroke-miterlimit:4;stroke-dasharray:none;stroke-dashoffset:0;stroke-opacity:1;stop-color:#000000"
           d="m 124.71108,76.62264 h 15.197"
           id="path10123-2"
           sodipodi:nodetypes="cc" />
      </g>
      <path
         id="sine-curve-2"
         fill="none"
         stroke="#ff0000"
         stroke-width="0.212023px"
         stroke-linecap="butt"
         d="m 5.4376946,93.082427 c 2.6102451,-2.610245 5.2182944,-5.21827 7.8765054,-7.39846 2.151546,-1.764699 4.318268,-3.234554 6.544911,-4.214335 1.953463,-0.859575 3.901534,-1.319273 5.892228,-1.319273 1.990889,0 3.939131,0.459772 5.89274,1.319468 2.226325,0.979733 4.392706,2.449368 6.54396,4.213725 2.658381,2.180312 5.266577,4.788459 7.876968,7.398875 2.610392,2.610415 5.218587,5.218562 7.876969,7.398853 2.151254,1.76438 4.317659,3.23401 6.543984,4.21375 1.953609,0.85969 3.901851,1.31946 5.892716,1.31946 1.990864,0 3.939106,-0.45977 5.892716,-1.31946 2.2263,-0.97971 4.392705,-2.44937 6.543935,-4.21373 2.658381,-2.180311 5.266601,-4.788458 7.876993,-7.398873"
         style="font-variation-settings:normal;fill:none;fill-opacity:1;stroke:#eceff4;stroke-width:1.32292;stroke-linecap:butt;stroke-linejoin:miter;stroke-miterlimit:4;stroke-dasharray:none;stroke-dashoffset:0;stroke-opacity:1;stop-color:#000000" />
      <path
         id="path12719-3"
         fill="none"
         stroke="#ff0000"
         stroke-width="0.212023px"
         stroke-linecap="butt"
         d="m 259.14565,93.123244 c -2.61025,-2.610245 -5.2183,-5.21827 -7.87651,-7.39846 -2.15155,-1.764699 -4.31827,-3.234554 -6.54491,-4.214335 -1.95346,-0.859574 -3.90153,-1.319273 -5.89223,-1.319273 -1.99089,0 -3.93913,0.459772 -5.89274,1.319468 -2.22632,0.979733 -4.3927,2.449368 -6.54396,4.213725 -2.65838,2.180312 -5.26658,4.788459 -7.87697,7.398875 -2.61039,2.610416 -5.21858,5.218562 -7.87697,7.398846 -2.15125,1.76439 -4.31765,3.23402 -6.54398,4.21375 -1.95361,0.8597 -3.90185,1.31947 -5.89272,1.31947 -1.99086,0 -3.9391,-0.45977 -5.89271,-1.31947 -2.2263,-0.9797 -4.39271,-2.44936 -6.54394,-4.21372 -2.65838,-2.180314 -5.2666,-4.78846 -7.87699,-7.398876"
         style="font-variation-settings:normal;fill:none;fill-opacity:1;stroke:#eceff4;stroke-width:1.32292;stroke-linecap:butt;stroke-linejoin:miter;stroke-miterlimit:4;stroke-dasharray:none;stroke-dashoffset:0;stroke-opacity:1;stop-color:#000000" />
      <path
         style="font-variation-settings:normal;fill:none;fill-opacity:1;stroke:#eceff4;stroke-width:1.32292;stroke-linecap:butt;stroke-linejoin:miter;stroke-miterlimit:4;stroke-dasharray:none;stroke-dashoffset:0;stroke-opacity:1;stop-color:#000000"
         d="m 132.29168,66.702006 0.0358,-52.57981"
         id="path1962"
         sodipodi:nodetypes="cc" />
    </g>
  </g>
</svg>
